<?xml version="1.0" encoding="UTF-8" standalone="no"?>
<!-- Created with Inkscape (http://www.inkscape.org/) -->

<svg
   xmlns:dc="http://purl.org/dc/elements/1.1/"
   xmlns:cc="http://creativecommons.org/ns#"
   xmlns:rdf="http://www.w3.org/1999/02/22-rdf-syntax-ns#"
   xmlns:svg="http://www.w3.org/2000/svg"
   xmlns="http://www.w3.org/2000/svg"
   xmlns:sodipodi="http://sodipodi.sourceforge.net/DTD/sodipodi-0.dtd"
   xmlns:inkscape="http://www.inkscape.org/namespaces/inkscape"
   width="210mm"
   height="297mm"
   id="svg3199"
   version="1.1"
   inkscape:version="0.48.4 r9939"
   sodipodi:docname="letter.svg"
   inkscape:export-filename="C:\Users\Max\Dropbox\dev\ksp-branding\letter.png"
   inkscape:export-xdpi="300"
   inkscape:export-ydpi="300">
  <defs
     id="defs3" />
  <sodipodi:namedview
     inkscape:document-units="mm"
     id="base"
     pagecolor="#ffffff"
     bordercolor="#666666"
     borderopacity="1.0"
     inkscape:pageopacity="0.0"
     inkscape:pageshadow="2"
     inkscape:zoom="0.49497475"
     inkscape:cx="346.37541"
     inkscape:cy="526.06125"
     inkscape:current-layer="layer1"
     showgrid="false"
     showguides="true"
     inkscape:guide-bbox="true"
     inkscape:window-width="1366"
     inkscape:window-height="748"
     inkscape:window-x="-8"
     inkscape:window-y="-8"
     inkscape:window-maximized="1">
    <sodipodi:guide
       orientation="1,0"
       position="64.649763,458.60926"
       id="guide4702" />
    <inkscape:grid
       type="xygrid"
       id="grid5166" />
  </sodipodi:namedview>
  <metadata
     id="metadata4">
    <rdf:RDF>
      <cc:Work
         rdf:about="">
        <dc:format>image/svg+xml</dc:format>
        <dc:type
           rdf:resource="http://purl.org/dc/dcmitype/StillImage" />
        <dc:title></dc:title>
      </cc:Work>
    </rdf:RDF>
  </metadata>
  <g
     inkscape:label="Layer 1"
     inkscape:groupmode="layer"
     id="layer1">
    <rect
       style="fill:#ffffff;fill-opacity:1;stroke:none"
       id="rect5344"
       width="1018.2338"
       height="1161.6754"
       x="-86.873116"
       y="-54.765007" />
    <rect
       style="fill:#a3a3a3;fill-opacity:0.60231664;stroke:none"
       id="rect3226"
       width="743.99731"
       height="2.3311455"
       x="0.10125239"
       y="872.50848" />
    <flowRoot
       xml:space="preserve"
       id="flowRoot4680"
       style="font-size:16px;font-style:normal;font-variant:normal;font-weight:normal;font-stretch:normal;line-height:125.99999905%;letter-spacing:0.34999999px;word-spacing:0px;fill:#525252;fill-opacity:1;stroke:none;font-family:Helvetica 55 Roman;-inkscape-font-specification:'Helvetica 55 Roman,'"
       transform="translate(-38.193987,195.48775)"><flowRegion
         id="flowRegion4682"><rect
           id="rect4684"
           width="491.42862"
           height="757.14282"
           x="102.85715"
           y="126.6479"
           style="font-size:16px;font-style:normal;font-variant:normal;font-weight:normal;font-stretch:normal;line-height:125.99999905%;letter-spacing:0.34999999px;fill:#525252;fill-opacity:1;font-family:Helvetica 55 Roman;-inkscape-font-specification:'Helvetica 55 Roman,'" /></flowRegion><flowPara
         id="flowPara4690"
         style="font-style:normal;font-variant:normal;font-weight:normal;font-stretch:normal;line-height:125.99999905%;letter-spacing:0.34999999px;fill:#525252;fill-opacity:1;font-family:Helvetica 55 Roman;-inkscape-font-specification:Helvetica 55 Roman">You see? It's curious. Ted did figure it out - time travel. And when we get back, we gonna tell everyone. How it's possible, how it's done, what the dangers are. But then why fifty years in the future when the spacecraft encounters a black hole does the computer call it an 'unknown entry event'? Why don't they know? If they don't know, that means we never told anyone. And if we never told anyone it means we never made it back. Hence we die down here. Just as a matter of deductive logic.You see? It's curious. Ted did figure it out - time travel. And when we get bthen why fifty years in the future when the spacecraft encounters a black hole does the computer call it an 'unknown entry event'? Why don't they know? If they don't know, that means we never told anyone. And if we never told anyone it means we never made it back. Hence we die down here. Just as a matter of deductive logic.</flowPara><flowPara
         style="font-style:normal;font-variant:normal;font-weight:normal;font-stretch:normal;line-height:125.99999905%;letter-spacing:0.34999999px;fill:#525252;fill-opacity:1;font-family:Helvetica 55 Roman;-inkscape-font-specification:Helvetica 55 Roman"
         id="flowPara5222" /><flowPara
         style="font-style:normal;font-variant:normal;font-weight:normal;font-stretch:normal;line-height:125.99999905%;letter-spacing:0.34999999px;fill:#525252;fill-opacity:1;font-family:Helvetica 55 Roman;-inkscape-font-specification:Helvetica 55 Roman"
         id="flowPara5328">mfg,</flowPara><flowPara
         style="font-style:normal;font-variant:normal;font-weight:normal;font-stretch:normal;line-height:125.99999905%;letter-spacing:0.34999999px;fill:#525252;fill-opacity:1;font-family:Helvetica 55 Roman;-inkscape-font-specification:Helvetica 55 Roman"
         id="flowPara5340" /><flowPara
         style="font-style:normal;font-variant:normal;font-weight:normal;font-stretch:normal;line-height:125.99999905%;letter-spacing:0.34999999px;fill:#525252;fill-opacity:1;font-family:Helvetica 55 Roman;-inkscape-font-specification:Helvetica 55 Roman"
         id="flowPara5332"> </flowPara><flowPara
         style="font-style:normal;font-variant:normal;font-weight:normal;font-stretch:normal;line-height:125.99999905%;letter-spacing:0.34999999px;fill:#525252;fill-opacity:1;font-family:Helvetica 55 Roman;-inkscape-font-specification:Helvetica 55 Roman"
         id="flowPara5232" /><flowPara
         style="font-style:normal;font-variant:normal;font-weight:normal;font-stretch:normal;line-height:125.99999905%;letter-spacing:0.34999999px;fill:#525252;fill-opacity:1;font-family:Helvetica 55 Roman;-inkscape-font-specification:Helvetica 55 Roman"
         id="flowPara5276" /><flowPara
         style="font-style:normal;font-variant:normal;font-weight:normal;font-stretch:normal;line-height:125.99999905%;letter-spacing:0.34999999px;fill:#525252;fill-opacity:1;font-family:Helvetica 55 Roman;-inkscape-font-specification:Helvetica 55 Roman"
         id="flowPara5278" /><flowPara
         style="font-style:normal;font-variant:normal;font-weight:normal;font-stretch:normal;line-height:125.99999905%;letter-spacing:0.34999999px;fill:#525252;fill-opacity:1;font-family:Helvetica 55 Roman;-inkscape-font-specification:Helvetica 55 Roman"
         id="flowPara5284" /><flowPara
         style="font-style:normal;font-variant:normal;font-weight:normal;font-stretch:normal;line-height:125.99999905%;letter-spacing:0.34999999px;fill:#525252;fill-opacity:1;font-family:Helvetica 55 Roman;-inkscape-font-specification:Helvetica 55 Roman"
         id="flowPara5326">George Washington</flowPara><flowPara
         id="flowPara4692"
         style="font-style:normal;font-variant:normal;font-weight:normal;font-stretch:normal;line-height:125.99999905%;letter-spacing:0.34999999px;fill:#525252;fill-opacity:1;font-family:Helvetica;-inkscape-font-specification:Helvetica" /><flowPara
         id="flowPara4694"
         style="font-style:normal;font-variant:normal;font-weight:normal;font-stretch:normal;line-height:125.99999905%;letter-spacing:0.34999999px;fill:#525252;fill-opacity:1;font-family:Helvetica;-inkscape-font-specification:Helvetica" /><flowPara
         id="flowPara4696"
         style="font-style:normal;font-variant:normal;font-weight:normal;font-stretch:normal;line-height:125.99999905%;letter-spacing:0.34999999px;fill:#525252;fill-opacity:1;font-family:Helvetica;-inkscape-font-specification:Helvetica" /></flowRoot>    <flowRoot
       xml:space="preserve"
       id="flowRoot4680-1"
       style="font-size:14px;font-style:normal;font-variant:normal;font-weight:normal;font-stretch:normal;line-height:127.99999714000000000%;letter-spacing:0.34999998999999998px;word-spacing:0px;fill:#a5a5a5;fill-opacity:1;stroke:none;font-family:Helvetica 55 Roman;-inkscape-font-specification:'Helvetica 55 Roman,'"
       transform="translate(-38.193987,-61.429306)"><flowRegion
         id="flowRegion4682-7"><rect
           id="rect4684-4"
           width="510.00006"
           height="149.99997"
           x="102.85715"
           y="126.6479"
           style="font-size:14px;font-style:normal;font-variant:normal;font-weight:normal;font-stretch:normal;line-height:127.99999714000000000%;letter-spacing:0.34999998999999998px;fill:#a5a5a5;fill-opacity:1;font-family:Helvetica 55 Roman;-inkscape-font-specification:'Helvetica 55 Roman,'" /></flowRegion><flowPara
         id="flowPara4696-8"
         style="font-style:normal;font-variant:normal;font-weight:normal;font-stretch:normal;line-height:127.99999714000000000%;letter-spacing:0.34999998999999998px;fill:#a5a5a5;fill-opacity:1;font-family:Helvetica;-inkscape-font-specification:Helvetica;font-size:14px">Konstanz, 25/9/2013</flowPara><flowPara
         style="font-style:normal;font-variant:normal;font-weight:normal;font-stretch:normal;line-height:127.99999714000000000%;letter-spacing:0.34999998999999998px;fill:#a5a5a5;fill-opacity:1;font-family:Helvetica;-inkscape-font-specification:Helvetica;font-size:14px"
         id="flowPara5195" /><flowPara
         style="font-style:normal;font-variant:normal;font-weight:normal;font-stretch:normal;line-height:127.99999714000000000%;letter-spacing:0.34999998999999998px;fill:#a5a5a5;fill-opacity:1;font-family:Helvetica;-inkscape-font-specification:Helvetica;font-size:14px"
         id="flowPara5214">Some Dude</flowPara><flowPara
         style="font-style:normal;font-variant:normal;font-weight:normal;font-stretch:normal;line-height:127.99999714000000000%;letter-spacing:0.34999998999999998px;fill:#a5a5a5;fill-opacity:1;font-family:Helvetica;-inkscape-font-specification:Helvetica;font-size:14px"
         id="flowPara5220">works at someorganisation</flowPara><flowPara
         style="font-style:normal;font-variant:normal;font-weight:normal;font-stretch:normal;line-height:127.99999714000000000%;letter-spacing:0.34999998999999998px;fill:#a5a5a5;fill-opacity:1;font-family:Helvetica;-inkscape-font-specification:Helvetica;font-size:14px"
         id="flowPara5216">183298 Earth</flowPara></flowRoot>    <path
       style="fill:#f04b44;fill-opacity:1;stroke:none"
       d="m 205.41508,908.62519 -152.90764,8.69612 6.8206,83.77299 28.09302,2.0218 16.56686,22.7464 17.75087,-20.2458 77.30214,3.686 z"
       id="path2988-1-1-8-1-8"
       inkscape:connector-curvature="0"
       sodipodi:nodetypes="cccccccc"
       inkscape:export-xdpi="300"
       inkscape:export-ydpi="300"
       inkscape:export-filename="C:\Users\Max\Desktop\ksp-branding\website\logo-big.png" />
    <flowRoot
       xml:space="preserve"
       id="flowRoot3762-7-7-2-4-2"
       style="font-size:40px;font-style:normal;font-weight:normal;line-height:125%;letter-spacing:-2.2176733px;word-spacing:0px;fill:#ffffff;fill-opacity:1;stroke:none;font-family:Sans"
       transform="matrix(1.5656139,0,0,1.5656139,-86.420097,772.28005)"
       inkscape:export-filename="C:\Users\Max\Desktop\ksp-branding\website\logo-big.png"
       inkscape:export-xdpi="300"
       inkscape:export-ydpi="300"><flowRegion
         id="flowRegion3764-4-1-4-2-4"><rect
           id="rect3766-0-1-5-3-5"
           width="130.30968"
           height="64.649765"
           x="93.944183"
           y="107.86955"
           style="letter-spacing:-2.2176733px;fill:#ffffff;fill-opacity:1" /></flowRegion><flowPara
         id="flowPara3768-9-5-5-2-5"
         style="font-style:normal;font-variant:normal;font-weight:bold;font-stretch:normal;letter-spacing:-2.2176733px;fill:#ffffff;fill-opacity:1;font-family:Helvetica;-inkscape-font-specification:Helvetica Bold"><flowSpan
           style="font-style:normal;font-variant:normal;font-weight:bold;font-stretch:normal;letter-spacing:-2.2176733px;word-spacing:-0.05939354px;fill:#ffffff;fill-opacity:1;font-family:Helvetica;-inkscape-font-specification:Helvetica Bold"
           id="flowSpan3812-4-2-1-2-1">ks</flowSpan><flowSpan
           style="letter-spacing:-2.2176733px"
           id="flowSpan3893-7-1-7">p</flowSpan></flowPara></flowRoot>    <flowRoot
       xml:space="preserve"
       id="flowRoot3326-1-6"
       style="font-size:40px;font-style:normal;font-weight:normal;line-height:125%;letter-spacing:0px;word-spacing:0px;fill:#000000;fill-opacity:1;stroke:none;font-family:Sans"
       transform="matrix(0.61048306,0,0,0.61048306,199.97413,789.28976)"
       inkscape:export-filename="C:\Users\Max\Desktop\ksp-branding\website\logo-big.png"
       inkscape:export-xdpi="300"
       inkscape:export-ydpi="300"><flowRegion
         id="flowRegion3328-1-8"><rect
           id="rect3330-5-5"
           width="825.57983"
           height="215.49251"
           x="32.142857"
           y="208.07646" /></flowRegion><flowPara
         style="font-style:normal;font-variant:normal;font-weight:bold;font-stretch:normal;letter-spacing:-1.88646698px;fill:#000000;fill-opacity:0.66795367;font-family:Helvetica;-inkscape-font-specification:Helvetica Bold"
         id="flowPara4110-2-7"><flowSpan
           style="line-height:125.99999905%"
           id="flowSpan4788"><flowSpan
             style="line-height:126.99999809%"
             id="flowSpan4790"><flowSpan
               style="line-height:127.99999714%"
               id="flowSpan4792"><flowSpan
                 style="line-height:128.99999619%"
                 id="flowSpan4794"><flowSpan
                   style="line-height:129.99999523%"
                   id="flowSpan4796"><flowSpan
                     style="line-height:130.99999428%"
                     id="flowSpan4798"><flowSpan
                       style="line-height:131.99999332%"
                       id="flowSpan4800"><flowSpan
                         style="line-height:132.99999237%"
                         id="flowSpan4802"><flowSpan
                           style="line-height:143.9999938%"
                           id="flowSpan4804"><flowSpan
                             style="line-height:154.99999523%"
                             id="flowSpan4806"><flowSpan
                               style="line-height:165.99999666%"
                               id="flowSpan4808"><flowSpan
                                 style="line-height:166.99999571%"
                                 id="flowSpan4812"><flowSpan
                                   style="line-height:167.99999475%"
                                   id="flowSpan4816"><flowSpan
                                   style="line-height:169.00000572%"
                                   id="flowSpan4820"><flowSpan
                                   style="line-height:170.00000477%"
                                   id="flowSpan4824"><flowSpan
                                   style="line-height:171.00000381%"
                                   id="flowSpan4828"><flowSpan
                                   style="line-height:172.00000286%"
                                   id="flowSpan4830"><flowSpan
                                   style="line-height:173.00000191%"
                                   id="flowSpan4832"><flowSpan
                                   style="line-height:174.00000095%"
                                   id="flowSpan4834"><flowSpan
                                   style="line-height:175%"
                                   id="flowSpan4836"><flowSpan
                                   style="line-height:175.99999905%"
                                   id="flowSpan4838"><flowSpan
                                   style="line-height:176.99999809%"
                                   id="flowSpan4840"><flowSpan
                                   style="line-height:177.99999714%"
                                   id="flowSpan4842"><flowSpan
                                   style="line-height:188.99999857%"
                                   id="flowSpan4844"><flowSpan
                                   style="line-height:200%"
                                   id="flowSpan4846"><flowSpan
                                   style="line-height:210.99998951%"
                                   id="flowSpan4848"><flowSpan
                                   style="line-height:222.00000286%"
                                   id="flowSpan4850"><flowSpan
                                   style="line-height:223.00000191%"
                                   id="flowSpan4854"><flowSpan
                                   style="line-height:224.00000095%"
                                   id="flowSpan4858"><flowSpan
                                   style="line-height:225%"
                                   id="flowSpan4860"><flowSpan
                                   style="line-height:225.99999905%"
                                   id="flowSpan4862"><flowSpan
                                   style="line-height:226.99999809%"
                                   id="flowSpan4864"><flowSpan
                                   style="line-height:227.99999714%"
                                   id="flowSpan4866"><flowSpan
                                   style="line-height:228.99999619%"
                                   id="flowSpan4868"><flowSpan
                                   style="line-height:229.99999523%"
                                   id="flowSpan4870"><flowSpan
                                   style="line-height:230.99999428%"
                                   id="flowSpan4872">fb / </flowSpan></flowSpan></flowSpan></flowSpan></flowSpan></flowSpan></flowSpan></flowSpan></flowSpan></flowSpan></flowSpan></flowSpan></flowSpan></flowSpan></flowSpan></flowSpan></flowSpan></flowSpan></flowSpan></flowSpan></flowSpan></flowSpan></flowSpan></flowSpan></flowSpan></flowSpan></flowSpan></flowSpan></flowSpan></flowSpan></flowSpan></flowSpan></flowSpan></flowSpan></flowSpan></flowSpan></flowPara><flowPara
         style="font-style:normal;font-variant:normal;font-weight:bold;font-stretch:normal;line-height:87.99999952%;letter-spacing:-1.88646698px;fill:#282828;fill-opacity:1;font-family:Helvetica;-inkscape-font-specification:Helvetica Bold"
         id="flowPara4784">Konstanzer</flowPara><flowPara
         id="flowPara3153"
         style="font-style:normal;font-variant:normal;font-weight:bold;font-stretch:normal;line-height:87.99999952%;letter-spacing:-1.88646698px;fill:#282828;fill-opacity:1;font-family:Helvetica;-inkscape-font-specification:Helvetica Bold">Schülerparlament </flowPara><flowPara
         style="font-style:normal;font-variant:normal;font-weight:bold;font-stretch:normal;letter-spacing:-1.88646698px;fill:#282828;fill-opacity:1;font-family:Helvetica;-inkscape-font-specification:Helvetica Bold"
         id="flowPara4276">  </flowPara></flowRoot>    <flowRoot
       xml:space="preserve"
       id="flowRoot5158"
       style="font-size:40px;font-style:normal;font-variant:normal;font-weight:normal;font-stretch:normal;line-height:125%;letter-spacing:0px;word-spacing:0px;fill:#000000;fill-opacity:1;stroke:none;font-family:Georgia;-inkscape-font-specification:Georgia"
       transform="translate(-2.506487,134.80133)"><flowRegion
         id="flowRegion5160"><rect
           id="rect5162"
           width="490"
           height="84.285713"
           x="67.14286"
           y="106.6479"
           style="font-style:normal;font-variant:normal;font-weight:normal;font-stretch:normal;font-family:Georgia;-inkscape-font-specification:Georgia" /></flowRegion><flowPara
         id="flowPara5164">Partyboot / Kostenfrage.</flowPara></flowRoot>    <flowRoot
       xml:space="preserve"
       id="flowRoot4680-1-1"
       style="font-size:16px;font-style:normal;font-variant:normal;font-weight:normal;font-stretch:normal;line-height:127.99999714%;letter-spacing:0.34999999px;word-spacing:0px;fill:#525252;fill-opacity:1;stroke:none;font-family:Helvetica 55 Roman;-inkscape-font-specification:'Helvetica 55 Roman,'"
       transform="translate(-38.193987,94.528163)"><flowRegion
         id="flowRegion4682-7-1"><rect
           id="rect4684-4-5"
           width="515.71436"
           height="55.714249"
           x="102.85715"
           y="126.6479"
           style="font-size:16px;font-style:normal;font-variant:normal;font-weight:normal;font-stretch:normal;line-height:127.99999714%;letter-spacing:0.34999999px;fill:#525252;fill-opacity:1;font-family:Helvetica 55 Roman;-inkscape-font-specification:'Helvetica 55 Roman,'" /></flowRegion><flowPara
         id="flowPara4696-8-2"
         style="font-style:normal;font-variant:normal;font-weight:normal;font-stretch:normal;line-height:127.99999714000000000%;letter-spacing:0.34999998999999998px;fill:#525252;fill-opacity:1;font-family:Helvetica;-inkscape-font-specification:Helvetica;font-size:14px">Betrifft:</flowPara></flowRoot>    <text
       xml:space="preserve"
       style="font-size:40px;font-style:normal;font-weight:normal;line-height:0%;letter-spacing:0px;word-spacing:0px;fill:#000000;fill-opacity:1;stroke:none;font-family:Sans"
       x="97.984795"
       y="736.18445"
       id="text5270"
       sodipodi:linespacing="0%"><tspan
         sodipodi:role="line"
         id="tspan5272"
         x="97.984795"
         y="736.18445"></tspan><tspan
         sodipodi:role="line"
         id="tspan5274"
         x="97.984795"
         y="736.18445" /></text>
    <path
       style="fill:#231f20"
       inkscape:connector-curvature="0"
       d="m 125.04556,709.55791 c 3.59913,-2.35458 7.18171,-5.10887 10.01069,-8.36006 1.42064,-1.63281 3.26774,-3.88979 2.73988,-6.22146 -0.48501,-2.14327 -3.50621,-3.06788 -5.41186,-3.11965 -4.81185,-0.12983 -9.57321,2.90409 -13.14051,5.79757 -5.07749,4.11851 -9.39839,9.30376 -12.95042,14.77162 -2.49758,3.84567 -5.89176,9.24861 -5.21242,14.08337 0.67552,4.80549 7.48723,3.23167 10.62936,2.60748 4.79488,-0.95303 9.30419,-2.7789 13.73033,-4.80082 1.71301,-0.78288 -0.90211,-0.10056 -1.03196,0.18713 -0.2198,0.48755 -0.9123,0.93267 -1.29547,1.2768 -2.75642,2.4772 -5.58454,4.87634 -8.36642,7.32598 -8.88454,7.82329 -18.04403,15.80359 -29.59205,19.35561 -4.819915,1.4826 -12.567677,2.49122 -16.619138,-1.47071 -1.587402,-1.55218 -1.310742,-3.38442 -0.726021,-5.34607 1.545818,-5.18654 5.834053,-9.62456 10.684095,-11.86246 2.79673,-1.28995 8.195426,-1.24879 10.496968,1.09986 2.920632,2.98046 -1.414278,8.47208 -3.179472,10.75326 -1.478775,1.91116 -3.327986,3.78328 -5.542117,4.83009 0.397593,-0.18797 -0.486702,-0.22362 -0.823192,-0.47948 -0.348796,-0.26478 -0.431963,-0.72135 -0.426872,-1.12913 0.03522,-2.77721 4.303087,-4.42614 6.358096,-5.2557 4.656125,-1.88019 9.403054,-3.54948 14.14235,-5.20477 6.594013,-2.30282 13.231753,-4.48768 19.924633,-6.48668 5.65456,-1.68924 11.41478,-3.40521 17.27175,-4.23434 1.18896,-0.16804 6.95512,-1.08076 5.73222,1.74016 -0.28558,0.65897 -0.80835,1.22587 -1.2925,1.741 -1.514,1.61074 -3.15656,3.11668 -4.74608,4.65189 -3.49475,3.37721 -7.03659,6.70647 -10.61536,9.99457 -2.81328,2.58499 -5.6465,5.15428 -8.57689,7.60688 -0.76888,0.64328 -1.54667,1.28443 -2.3724,1.85346 -1.14187,0.7867 1.70112,-0.0598 1.69221,-0.36153 -0.007,-0.22107 0.27835,-0.52277 0.39419,-0.68528 4.39177,-6.16758 10.97349,-10.98579 17.13682,-15.22311 3.44594,-2.36943 7.01622,-4.56532 10.69088,-6.56093 2.27651,-1.23648 5.53703,-3.44001 8.21622,-3.52869 2.15006,-0.0713 0.92249,2.16236 0.3331,3.15359 -2.86845,4.82713 -6.63434,9.14125 -10.45327,13.22963 -2.58542,2.76788 -5.29346,5.42543 -8.08255,7.9875 -1.28571,1.18048 0.0547,-0.78372 1.36633,-0.0615 -0.20028,-0.11032 0.0348,-0.56859 0.0904,-0.6908 0.71966,-1.58401 2.17509,-2.93166 3.37339,-4.14227 2.74157,-2.7683 5.79077,-5.23575 8.86756,-7.61791 6.72895,-5.20945 13.91406,-9.80745 20.89125,-14.67149 1.46095,-1.01838 2.90832,-2.0584 4.39134,-3.04496 0.24993,-0.16634 0.5041,-0.34923 0.77779,-0.47652 -4.12487,1.92135 -1.82417,-0.26859 -2.06264,0.74766 -0.39251,1.66802 -0.29024,2.09787 0.82064,3.54864 1.16987,1.52799 2.37241,2.65967 4.40365,2.44963 2.88711,-0.29787 5.37832,-1.84539 7.57379,-3.63393 -0.30806,0.2512 -1.82927,0.12221 -2.38683,0.57666 -1.58019,1.28698 -3.22021,3.10861 -5.25231,1.8925 -1.12107,-0.67087 -1.86109,-1.95148 -2.65967,-2.94567 -0.47991,-0.59788 -0.40651,-1.34341 -0.20028,-2.03295 0.62291,-2.08428 -3.4277,0.46252 -4.16815,0.97001 -7.87719,5.40124 -15.89355,10.67731 -23.5157,16.43286 -3.26222,2.46364 -6.44806,5.055 -9.38397,7.90392 -1.34257,1.3031 -2.72884,2.69786 -3.71284,4.30393 -0.34965,0.57072 -0.67383,1.23437 0.25247,1.09222 1.63577,-0.2512 2.54723,-0.82489 3.712,-1.90777 6.75314,-6.27493 13.68832,-13.23896 18.25491,-21.31473 2.46618,-4.36122 -5.60195,-1.42276 -7.06205,-0.85884 -7.00434,2.70466 -13.54278,6.95725 -19.62803,11.29301 -3.41413,2.43308 -6.70986,5.05245 -9.75355,7.93828 -1.95529,1.85346 -4.09856,3.9352 -5.54721,6.2325 -0.56435,0.8949 2.41696,-0.1884 2.88924,-0.48458 2.22346,-1.39476 4.18724,-3.35684 6.14381,-5.08724 6.89486,-6.09883 13.64249,-12.41662 20.13679,-18.94105 0.69123,-0.69462 1.89546,-1.84837 1.68288,-2.95119 -0.17568,-0.91188 -1.63833,-1.00777 -2.33676,-1.05147 -4.35613,-0.27115 -9.01438,1.1147 -13.19229,2.14963 -6.4455,1.59673 -12.80657,3.53548 -19.12732,5.56291 -6.1994,1.98881 -12.360189,4.10196 -18.482785,6.31736 -4.277622,1.5471 -9.338553,2.87735 -13.071346,5.55527 -0.984435,0.70651 -3.863061,3.87495 -1.340869,4.60903 2.156423,0.62758 5.146645,-0.87241 6.848191,-2.06435 3.549909,-2.4874 7.37987,-7.33532 7.944224,-11.72029 0.396316,-3.07892 -2.500974,-4.3277 -5.037169,-4.66801 -7.739275,-1.03918 -15.475156,3.04327 -19.762117,9.35383 -1.487686,2.18995 -3.56476,5.89898 -2.297724,8.61933 0.72687,1.56067 2.462362,2.52601 4.020909,3.05302 5.747916,1.94426 12.30502,0.38529 17.882781,-1.39985 10.420158,-3.33435 19.207095,-9.98268 27.284565,-17.161 3.34156,-2.96943 6.71877,-5.89771 10.08155,-8.8438 0.171,-0.14978 2.51837,-2.3147 2.33846,-2.37537 -0.95728,-0.32037 -2.78782,0.70395 -3.684,1.11343 -1.97778,0.90381 -3.95598,1.79065 -6.00166,2.53364 -3.03223,1.10198 -6.23292,1.77623 -9.47052,1.72828 -1.76478,-0.0263 -3.33775,-0.78458 -3.94623,-2.50734 -1.50721,-4.26659 2.13648,-10.07943 4.21313,-13.51901 3.49475,-5.78865 7.97774,-11.13006 13.12226,-15.51929 3.44468,-2.93887 9.6984,-7.81565 13.77192,-2.94355 2.61088,3.12262 -2.76533,7.94551 -4.73378,9.75738 -2.29814,2.11568 -4.81822,4.05188 -7.43334,5.76276 0.37172,-0.24356 1.76987,-0.1727 2.38811,-0.57751 l 0,0 m 21.00836,-0.93012 c -1.80932,-0.22404 -3.64538,0.11329 -5.37493,0.62758 -2.16576,0.64413 -4.56235,2.55698 -3.11285,5.10803 1.0171,1.79023 4.75117,0.11245 5.98723,-0.54865 1.63026,-0.87242 4.00055,-3.23252 2.55232,-5.16956 -0.27666,-0.37043 -2.3741,0.7727 -2.45896,0.65897 0.9908,1.32518 0.11796,2.85445 -0.88133,3.88259 -0.58175,0.5983 -1.29929,1.08627 -2.05798,1.42827 1.21188,-0.54653 0.71966,-0.0861 0.0271,-0.32291 -0.30297,-0.10353 -0.52913,-0.33437 -0.7099,-0.58853 -1.01159,-1.42277 -0.0666,-3.52106 1.25261,-4.31243 0.36195,-0.15827 0.33267,-0.17227 -0.0866,-0.0415 0.19307,-0.0335 0.39123,-0.0467 0.58642,-0.0637 0.35007,-0.0306 0.70311,-0.0293 1.05445,-0.0225 0.28896,0.006 0.57963,0.0225 0.86647,0.0582 0.4693,0.0581 1.09349,-0.19859 1.53309,-0.32801 0.10311,-0.0297 0.92376,-0.35346 0.82277,-0.36576 m 15.01815,37.49171 c -1.74186,-1.22375 -4.17579,-0.67425 -6.05597,-0.1727 -3.6963,0.98529 -8.48651,4.0137 -9.11664,8.10505 -0.50537,3.27918 4.93066,1.29504 6.21425,0.61357 1.93917,-1.02984 3.56094,-2.50776 5.37748,-3.72176 -2.2782,1.52206 -1.72871,-0.33182 -1.81229,1.18642 -0.0441,0.80325 -0.0704,1.59207 -0.0246,2.39616 0.13409,2.33082 1.70367,2.03125 3.56688,1.57595 2.71059,-0.66237 5.17805,-1.94511 7.55852,-3.37085 6.96148,-4.17069 13.65564,-9.63601 18.80399,-15.92621 0.11542,-0.14087 2.99871,-3.76123 2.58541,-4.04001 -0.82531,-0.55544 -2.80224,0.7761 -3.44595,1.37184 -3.92925,3.63436 -7.38029,7.87889 -10.89455,11.90277 -4.05189,4.63915 -8.08341,9.30843 -11.94308,14.10925 -2.10932,2.62361 -4.0383,5.38809 -6.08313,8.06134 -1.38415,1.80932 -2.81668,3.58386 -4.3748,5.24721 -0.59448,0.63522 -1.22757,1.23266 -1.89079,1.79533 -0.27709,0.23549 -0.57327,0.44596 -0.87199,0.6526 -0.22107,0.14936 -0.45148,0.28091 -0.69207,0.39633 1.15331,-0.17483 1.4427,-0.29279 0.86859,-0.35516 -1.48387,-0.23975 -1.32135,-2.51286 -1.05657,-3.50324 0.59236,-2.2171 2.33804,-4.18215 3.82359,-5.84805 4.53478,-5.08427 10.22244,-9.23461 15.84221,-13.02722 -0.36238,0.24441 -1.77623,0.16463 -2.38684,0.57666 -4.99813,3.37296 -9.83756,7.03065 -14.14829,11.25862 -2.33591,2.29094 -5.90873,5.70676 -5.7912,9.27492 0.0917,2.78824 3.08994,1.9485 4.74821,1.26958 3.07169,-1.25685 5.37112,-4.57296 7.36459,-7.08115 3.89489,-4.90011 7.51778,-9.9602 11.55355,-14.75125 4.41426,-5.24085 8.90192,-10.42569 13.50585,-15.50147 1.52376,-1.67991 3.05048,-3.37127 4.69135,-4.93873 0.2075,-0.19858 0.42051,-0.3908 0.64073,-0.57454 1.05912,-0.88472 -1.45713,1.21485 -1.88825,0.35856 0.12985,0.25757 -0.5007,1.04851 -0.61569,1.23139 -4.23095,6.72938 -11.10885,12.12002 -17.57388,16.57544 -1.50126,1.0345 -3.0475,2.00494 -4.63533,2.90069 -1.02814,0.5792 -2.59135,1.70621 -3.82572,1.54836 -1.93917,-0.24823 -0.38232,-4.97733 -1.11173,-5.02571 -2.89093,-0.19052 -5.50817,2.92488 -7.68708,4.25174 -1.96039,1.19363 -2.01937,-1.64256 -1.61202,-2.7492 0.90169,-2.44921 4.58442,-6.04198 7.31071,-6.10859 0.87326,-0.0217 1.89674,0.18288 2.62403,0.69376 0.53593,0.37809 2.13903,-0.88217 2.45854,-0.6577 l 0,0 m 44.26947,-15.9364 c 1.97694,-1.43677 3.82063,-3.09927 5.44877,-4.91963 1.26152,-1.41003 4.21864,-5.20817 1.92814,-7.00265 -1.01457,-0.79476 -3.49348,0.40354 -4.44482,0.88981 -2.33294,1.1932 -4.27593,3.3717 -6.06616,5.2294 -9.7544,10.12271 -17.27557,22.31529 -27.53279,31.96403 -0.29618,0.27878 -1.32305,0.83846 -0.5024,0.58344 0.60805,-0.13918 1.21569,-0.27835 1.82375,-0.41753 -0.1396,-0.0119 1.21782,-2.2188 1.28953,-2.32488 1.78174,-2.62446 3.68654,-5.20902 5.83575,-7.54452 0.69802,-0.75912 1.45501,-1.45925 2.25401,-2.11017 0.30424,-0.24738 0.62886,-0.46591 0.95601,-0.68061 0.80283,-0.52659 1.13889,-0.0976 -0.19562,-0.11585 0.93988,0.0127 1.20722,1.00948 1.22248,1.76562 0.0615,3.01356 -2.90323,4.69432 -3.46419,7.40449 -0.61145,2.95585 3.90889,2.72077 5.57352,2.36052 4.11935,-0.89151 7.55342,-2.76024 10.41083,-5.90958 0.81725,-0.90042 1.84497,-1.93832 2.3287,-3.07976 0.23762,-0.56011 -1.81315,0.12178 -1.98245,0.17567 -2.55911,0.81385 -9.72852,9.90843 -4.87635,11.00659 3.01865,0.68359 6.8622,-1.3867 9.35807,-2.82686 4.13081,-2.38429 7.28737,-5.77083 10.9527,-8.72626 0.41372,-0.33352 0.84526,-0.6437 1.29249,-0.9297 0.15659,-0.10013 0.3191,-0.19434 0.48544,-0.2775 0.799,-0.40185 -2.09363,-0.004 -1.34597,0.39717 0.4604,0.24652 -0.18755,1.36972 -0.31484,1.62134 -2.18443,4.32515 -6.05174,8.10674 -9.25752,11.6418 0.8075,-0.2058 1.61541,-0.41202 2.4229,-0.61782 3.00974,-3.47819 6.1977,-7.32216 10.02554,-9.91904 1.38543,-0.93988 -1.14865,-0.16379 -0.7082,0.12433 0.2249,0.14724 0.2075,0.53423 0.20411,0.75955 -0.0216,1.57636 -0.71627,3.16758 -0.85799,4.75287 -0.28133,3.14892 3.10182,3.12346 5.41694,3.19644 3.84566,0.12094 7.64805,-0.59787 11.19923,-2.10083 2.95924,-1.25261 7.15158,-3.31441 8.1097,-6.69884 0.75616,-2.66942 -2.34057,-2.90535 -4.03448,-2.48357 -2.85444,0.71117 -5.23363,2.10168 -7.5704,3.87027 -7.01579,5.31086 -13.43711,12.57404 -17.82931,20.19663 0.22617,-0.39293 2.11059,-0.0543 2.45897,-0.65898 4.41129,-7.65568 10.78126,-14.71137 17.7576,-20.11388 1.33663,-1.03536 2.75557,-2.00112 4.28399,-2.73181 0.74639,-0.35686 -0.45827,-0.11287 0.37893,-0.13239 0.21046,-0.005 0.41541,0.0348 0.61994,0.0789 0.63521,0.13663 1.10452,0.71498 1.38287,1.2594 1.67099,3.27154 -5.15428,6.73149 -7.18553,7.64889 -2.79672,1.26406 -5.71567,1.29164 -8.71522,1.10367 -1.24752,-0.0789 -2.8799,-0.19562 -3.58004,-1.39179 -0.5652,-0.96619 -0.16421,-2.45727 0.0259,-3.46504 0.17822,-0.94625 1.01965,-2.7369 0.46336,-3.67466 -0.57114,-0.96364 -3.75486,0.73068 -4.41002,1.1758 -2.32572,1.57765 -4.30054,3.78075 -6.22061,5.80987 -1.25304,1.32389 -2.48145,2.67495 -3.67381,4.05358 0.36364,-0.4205 1.93026,-0.0743 2.4229,-0.61781 3.04326,-3.35473 6.16035,-6.75867 8.64436,-10.56105 0.23083,-0.35303 2.02149,-3.03816 0.53592,-2.85316 -1.74525,0.21768 -3.23081,0.90042 -4.61241,1.95656 -3.15911,2.41612 -5.82642,5.33632 -9.13361,7.60519 -1.68331,1.15501 -4.21992,3.14977 -6.35004,2.90027 -1.57594,-0.18501 -1.81739,-1.93493 -1.59716,-3.19136 0.47609,-2.71059 2.85147,-5.3779 4.90351,-7.06671 1.22418,-1.00735 -1.51654,-0.0306 -1.52121,0.2686 -0.005,0.33012 -0.40014,0.7536 -0.57453,1.00056 -1.51019,2.14114 -3.41668,4.01708 -5.59305,5.4704 -1.82374,1.21781 -4.06122,2.0758 -6.16544,1.0676 -1.25092,-0.59957 -1.25813,-1.93959 -0.79689,-3.06193 0.99207,-2.41357 3.59659,-4.14185 3.12007,-7.08921 -0.33225,-2.05416 -3.25373,-0.91909 -4.42062,-0.49095 -3.78584,1.3884 -6.50916,5.57947 -8.77336,8.66177 -1.02602,1.39603 -2.13903,2.80988 -2.93761,4.3557 -0.47015,0.9106 1.17411,0.23168 1.54157,0.12347 2.21414,-0.6526 3.86179,-3.06659 5.35882,-4.68582 2.226,-2.40847 4.40534,-4.86914 6.48157,-7.40788 4.66206,-5.70166 9.16246,-11.53147 14.0159,-17.07487 1.99602,-2.2799 4.05103,-4.52161 6.27917,-6.57831 0.80791,-0.74597 1.65402,-1.45332 2.5608,-2.07623 0.19477,-0.13324 0.3976,-0.25502 0.60042,-0.37468 0.72136,-0.42475 0.71542,0.0531 -0.73705,0.0853 0.2826,-0.006 0.51343,0.12305 0.70651,0.31697 2.11441,2.12545 -1.26747,5.93929 -2.61598,7.39514 -1.46137,1.57765 -3.12982,3.01908 -4.86998,4.284 0.34074,-0.24908 1.79532,-0.14767 2.38598,-0.57751 l 0,0 m -7.90603,43.47641 c 3.53633,-0.85841 7.84111,-1.4198 11.68593,-1.72616 6.84606,-0.54568 14.37106,-0.38019 20.64089,2.73266 0.64922,0.32291 2.01385,-0.88005 2.45897,-0.65898 -6.57577,-3.2656 -14.363,-3.28427 -21.52477,-2.71314 -4.2441,0.33819 -8.523,0.97128 -12.66442,1.97651 -0.78246,0.19053 -2.33337,0.81046 -0.5966,0.38911 l 0,0 m 72.00042,-46.63466 c -7.28567,8.46063 -14.61844,16.94756 -22.44428,24.91597 -1.34129,1.36549 -2.71483,2.90494 -4.33746,3.94878 -0.66237,0.42602 1.90268,0.025 1.37864,-0.46718 -0.0827,-0.0781 -0.0751,-0.23762 -0.0781,-0.33649 -0.0123,-0.39844 0.2321,-0.82914 0.40226,-1.17156 0.74724,-1.50297 2.00706,-2.76619 3.27834,-3.82997 1.7966,-1.50381 3.62502,-2.16873 5.93462,-1.5454 2.42672,0.65517 4.77706,0.91316 7.25809,0.45785 1.8751,-0.34412 6.47818,-1.35741 5.68172,-4.1465 -0.74809,-2.61852 -4.42062,-1.28528 -6.03179,-0.59958 -2.84255,1.21061 -5.15428,4.43633 -6.20024,7.23815 -1.05785,2.83449 0.80367,4.15542 3.48541,3.68315 3.04453,-0.53635 5.95202,-1.65954 8.17251,-3.87367 1.24667,-1.24285 1.74355,-2.73775 2.31682,-4.35019 0.17737,-0.49986 0.39801,-1.03875 0.81258,-1.38754 -0.98698,0.82913 -2.29178,0.34455 -1.2543,0.49179 0.22701,0.0322 0.45233,0.0857 0.67722,0.13154 3.26263,0.66619 6.16715,-0.21938 9.35214,-0.8198 2.59899,-0.49009 0.61866,1.63239 -0.2075,2.54384 -3.29404,3.63477 -6.78497,7.08538 -10.06246,10.73926 0.80749,-0.20581 1.61541,-0.41202 2.4229,-0.61783 1.23819,-1.50678 2.59009,-2.93166 4.03321,-4.24282 0.4587,-0.4167 0.94244,-0.80453 1.43932,-1.17454 0.18289,-0.13281 0.36959,-0.25884 0.5601,-0.37978 0.89873,-0.58811 1.0116,-4.1e-4 -0.42516,-0.0428 1.02686,0.0301 1.22714,1.85939 1.50847,2.56038 2.40932,6.00718 10.11126,1.40749 13.51647,-1.03705 -0.34498,0.2478 -1.79278,0.15021 -2.38683,0.57665 -1.63535,1.17411 -3.84737,3.11074 -5.98045,2.63804 -1.14695,-0.25459 -1.90904,-1.28698 -2.42501,-2.25911 -0.92928,-1.75034 -0.70184,-3.55033 -3.11668,-3.01993 -3.91653,0.86096 -6.72683,4.05104 -9.1824,7.03956 0.34158,-0.41541 1.94171,-0.081 2.4229,-0.61781 3.27833,-3.65387 6.74125,-7.1274 10.06288,-10.73884 0.47481,-0.5164 2.77084,-2.73181 0.9072,-2.75217 -3.25457,-0.0357 -6.18157,1.5717 -9.53842,1.01541 -1.42743,-0.23677 -3.98016,-0.5809 -4.99558,0.82532 -0.86223,1.19405 -1.01244,2.7683 -1.74822,4.04424 -0.95473,1.65615 -3.36278,3.85373 -5.35202,4.10154 -4.44778,0.55374 -2.50352,-4.34807 -1.19532,-6.39842 1.02432,-1.60521 2.38725,-3.03732 3.98696,-4.07395 1.37142,-0.88853 -0.6314,-0.15318 0.16845,-0.0946 0.39802,0.0289 0.70057,0.23168 1.00609,0.4553 0.60253,0.44215 0.92417,1.13337 0.88768,1.86534 -0.12178,2.46915 -3.79771,2.30324 -5.4093,2.13521 -2.17976,-0.22659 -4.09814,-1.19576 -6.3267,-0.81132 -3.0823,0.53211 -5.80901,1.69858 -8.10631,3.85501 -0.35347,0.33182 -3.86773,4.53985 -2.51371,4.70788 3.6055,0.44597 6.97421,-4.18639 9.06572,-6.36403 7.27549,-7.57421 14.18732,-15.51886 21.03891,-23.47625 -0.37637,0.43706 -1.95698,0.0751 -2.45939,0.65898 l 0,0 m -45.84965,2.32361 c 3.40903,4.09517 9.25199,4.08202 13.90939,2.60578 8.18184,-2.59305 17.50428,-10.93529 16.2173,-20.34896 -0.26691,-1.94893 -1.49999,-5.55399 -3.62671,-6.26347 -1.47241,-0.49137 -3.52785,0.30085 -4.84835,0.93394 -3.78541,1.81569 -6.05343,6.51934 -5.46404,10.5916 0.71117,4.91538 5.49969,7.94762 9.65341,9.77264 6.76884,2.97325 14.60783,4.24368 21.96861,4.2492 4.2441,0.003 8.36728,-0.82744 12.57956,-1.11895 3.19432,-0.22065 4.39983,1.50339 4.70195,4.51653 0.004,0.039 2.4891,-0.35899 2.45897,-0.65898 -0.16846,-1.68288 -0.51811,-3.62544 -2.28245,-4.30309 -1.6799,-0.64498 -3.83505,-0.15827 -5.54763,0.0679 -9.00717,1.18769 -17.58575,0.80282 -26.38542,-1.66293 -6.39544,-1.79193 -15.42254,-5.77804 -14.75762,-13.82835 0.19052,-2.30451 1.32475,-4.50761 2.85698,-6.20534 0.61655,-0.68316 1.33832,-1.27043 2.12757,-1.74313 1.27086,-0.76124 -0.82701,-0.084 0.007,-0.0425 0.38019,0.0187 0.7222,0.1693 1.02432,0.39165 2.23026,1.63705 3.12771,4.99092 3.20918,7.58992 0.14299,4.55259 -2.49674,8.66982 -5.53448,11.82001 -3.97,4.11765 -9.54479,7.89755 -15.40982,5.88752 -1.6154,-0.55375 -3.29403,-1.58231 -4.3994,-2.91003 -0.31825,-0.38274 -2.34058,0.80113 -2.45854,0.65898 l 0,0 z"
       id="path5300" />
  </g>
</svg>
