<?xml version="1.0" encoding="UTF-8" standalone="no"?>
<!-- Created with Inkscape (http://www.inkscape.org/) -->

<svg
   xmlns:dc="http://purl.org/dc/elements/1.1/"
   xmlns:cc="http://creativecommons.org/ns#"
   xmlns:rdf="http://www.w3.org/1999/02/22-rdf-syntax-ns#"
   xmlns:svg="http://www.w3.org/2000/svg"
   xmlns="http://www.w3.org/2000/svg"
   xmlns:sodipodi="http://sodipodi.sourceforge.net/DTD/sodipodi-0.dtd"
   xmlns:inkscape="http://www.inkscape.org/namespaces/inkscape"
   width="373.1619"
   height="162.58881"
   id="svg4464"
   version="1.1"
   inkscape:version="0.48.4 r9939"
   sodipodi:docname="logo-big.svg"
   inkscape:export-filename="C:\Users\Max\Desktop\logo-final.png"
   inkscape:export-xdpi="300"
   inkscape:export-ydpi="300">
  <defs
     id="defs4466" />
  <sodipodi:namedview
     id="base"
     pagecolor="#ffffff"
     bordercolor="#666666"
     borderopacity="1.0"
     inkscape:pageopacity="0.0"
     inkscape:pageshadow="2"
     inkscape:zoom="0.49497475"
     inkscape:cx="284.31292"
     inkscape:cy="-149.21025"
     inkscape:document-units="px"
     inkscape:current-layer="layer1"
     showgrid="false"
     inkscape:window-width="1366"
     inkscape:window-height="748"
     inkscape:window-x="-8"
     inkscape:window-y="-8"
     inkscape:window-maximized="1"
     showguides="true"
     inkscape:guide-bbox="true"
     fit-margin-top="0"
     fit-margin-left="0"
     fit-margin-right="0"
     fit-margin-bottom="0" />
  <metadata
     id="metadata4469">
    <rdf:RDF>
      <cc:Work
         rdf:about="">
        <dc:format>image/svg+xml</dc:format>
        <dc:type
           rdf:resource="http://purl.org/dc/dcmitype/StillImage" />
        <dc:title />
      </cc:Work>
    </rdf:RDF>
  </metadata>
  <g
     inkscape:label="Ebene 1"
     inkscape:groupmode="layer"
     id="layer1"
     transform="translate(-30.90643,-251.23863)">
    <path
       style="fill:none;stroke:#ffffff;stroke-width:8;stroke-miterlimit:4;stroke-opacity:1;stroke-dasharray:none;fill-opacity:0"
       d="m 191.81409,255.23863 -156.90766,8.69612 6.8206,83.77298 32.093019,2.02184 16.566852,22.7464 17.750869,-20.24579 77.30217,3.68599 z"
       id="path2988-1-1-8-1-3-4-4"
       inkscape:connector-curvature="0"
       sodipodi:nodetypes="cccccccc"
       inkscape:export-xdpi="240.98026"
       inkscape:export-ydpi="240.98026"
       inkscape:export-filename="C:\Users\Max\Desktop\ksp-branding\website\logo-outline.png" />
    <g
       transform="matrix(1.5656139,0,0,1.5656139,-100.02108,115.35793)"
       style="font-size:40px;font-style:normal;font-weight:normal;line-height:125%;letter-spacing:-2.21767330000000000px;word-spacing:0px;fill:#ffffff;fill-opacity:1;stroke:none;font-family:Sans"
       id="flowRoot3762-7-7-2-4-8-7-9"
       inkscape:export-filename="C:\Users\Max\Desktop\ksp-branding\website\logo-outline.png"
       inkscape:export-xdpi="240"
       inkscape:export-ydpi="240">
      <path
         d="m 96.691406,141.29794 0,-28.71094 0,0 2.792969,0 2.812505,0 0,0 0,15.50781 0,0 6.99218,-8.04687 0,0 3.45703,0 3.45704,0 0,0 -7.67579,8.04687 0,0 7.8711,13.20313 0,0 -3.32031,0 -3.33985,0 0,0 -5.11719,-9.14063 0,0 -2.32421,2.44141 0,0 0,6.69922 0,0 -2.792974,0 -2.8125,0 z"
         style="word-spacing:-0.05939354000000000px;fill:#ffffff;font-family:Helvetica;-inkscape-font-specification:Helvetica Bold;fill-opacity:1"
         id="path3361"
         inkscape:connector-curvature="0" />
      <path
         d="m 128.61436,126.41513 0,0 c -2e-5,-0.8203 -0.33856,-1.47785 -1.01563,-1.97266 -0.67709,-0.49477 -1.57553,-0.74217 -2.69531,-0.74219 -1.08074,2e-5 -1.92384,0.18557 -2.5293,0.55664 -0.60547,0.37111 -0.90821,0.88869 -0.9082,1.55274 -1e-5,0.46876 0.34504,0.87241 1.03516,1.21094 0.67707,0.32553 1.8815,0.6836 3.61328,1.07421 3.43748,0.76825 5.73566,1.60809 6.89453,2.51954 1.15883,0.91146 1.73826,2.34375 1.73828,4.29687 -2e-5,2.08334 -0.84312,3.75977 -2.5293,5.0293 -1.68621,1.26953 -3.90952,1.90429 -6.66992,1.90429 -3.26824,0 -5.78451,-0.625 -7.54883,-1.875 -1.76432,-1.24999 -2.70508,-3.07291 -2.82226,-5.46875 l 0,0 5.70312,0 0,0 c 0.0391,0.97657 0.472,1.74155 1.29883,2.29493 0.82681,0.55339 1.94986,0.83008 3.36914,0.83007 1.11978,1e-5 1.99543,-0.19205 2.62695,-0.57617 0.6315,-0.38411 0.94725,-0.92122 0.94727,-1.61133 -2e-5,-0.48176 -0.306,-0.89192 -0.91797,-1.23046 -0.61199,-0.32552 -1.68621,-0.65755 -3.22266,-0.9961 -3.59375,-0.80728 -5.99609,-1.66014 -7.20703,-2.55859 -1.21094,-0.88541 -1.8164,-2.2591 -1.8164,-4.1211 0,-2.10935 0.7845,-3.81183 2.35351,-5.10742 1.56901,-1.29555 3.63606,-1.94334 6.20117,-1.94336 2.89062,2e-5 5.22134,0.63479 6.99219,1.9043 1.77082,1.26955 2.65623,2.94598 2.65625,5.0293 l 0,0 z"
         style="word-spacing:-0.05939354000000000px;fill:#ffffff;font-family:Helvetica;-inkscape-font-specification:Helvetica Bold;fill-opacity:1"
         id="path3363"
         inkscape:connector-curvature="0" />
      <path
         d="m 136.51387,120.04794 0,0 2.65625,0 2.67578,0 0,0 0,3.14453 0,0 0.3711,-0.52734 c 1.5104,-2.12238 3.50259,-3.18358 5.97656,-3.1836 2.69529,2e-5 4.86,0.99612 6.49414,2.98828 1.63409,1.99221 2.45115,4.6159 2.45117,7.8711 -2e-5,3.45053 -0.81708,6.23047 -2.45117,8.33984 -1.63414,2.10938 -3.79885,3.16406 -6.49414,3.16406 -2.46095,0 -4.44663,-0.98958 -5.95703,-2.96875 l -0.11719,-0.15625 0,0 0,10.89844 0,0 -2.79297,0 -2.8125,0 0,0 z m 10.07813,17.1875 c 1.49738,0 2.66925,-0.56315 3.51562,-1.68945 0.84634,-1.1263 1.26951,-2.69205 1.26953,-4.69727 -2e-5,-2.04426 -0.41994,-3.64256 -1.25976,-4.79492 -0.83986,-1.15233 -2.00848,-1.7285 -3.50586,-1.72852 -1.49741,2e-5 -2.66603,0.59247 -3.50586,1.77735 -0.83985,1.18491 -1.25978,2.83204 -1.25977,4.9414 l 0,0 0,0 0,0 c -1e-5,1.94012 0.41992,3.45704 1.25977,4.55078 0.83983,1.09376 2.00194,1.64063 3.48633,1.64063 z"
         style="fill:#ffffff;fill-opacity:1"
         id="path3365"
         inkscape:connector-curvature="0" />
      <path
         d="m 158.82745,135.47763 5.97656,0 0,5.82031 -5.97656,0 z"
         style="fill:#ffffff;fill-opacity:1"
         id="path3367"
         inkscape:connector-curvature="0" />
    </g>
    <path
       inkscape:connector-curvature="0"
       id="path3302"
       style="font-size:40px;font-style:normal;font-weight:normal;line-height:125%;letter-spacing:0px;word-spacing:0px;fill:#ffffff;fill-opacity:0.19607843;stroke:none;font-family:Sans"
       d="m 56.321903,398.17188 0,0 0,10.57614 0,0 -1.705059,0 -1.716984,0 0,0 0,-10.57614 0,0 -1.895836,0 0,-2.39662 1.895836,0 0,0 0,-1.08504 c -2e-6,-1.24798 0.331868,-2.17801 0.995612,-2.7901 0.663737,-0.61206 1.671272,-0.91809 3.022606,-0.91811 0.604117,-0.008 1.140675,0.0199 1.609673,0.0835 l 0,2.73047 -1.085039,0 c -0.453099,2e-5 -0.753173,0.0914 -0.900223,0.27424 -0.147063,0.18284 -0.220591,0.55645 -0.220586,1.12081 l 0,0.58426 0,0 2.205848,0 0,2.39662 z" />
    <path
       inkscape:connector-curvature="0"
       id="path3304"
       style="font-size:40px;font-style:normal;font-weight:normal;line-height:125%;letter-spacing:0px;word-spacing:0px;fill:#ffffff;fill-opacity:0.19607843;stroke:none;font-family:Sans"
       d="m 59.260007,391.22048 0,0 1.70506,0 1.716984,0 0,0 0,6.24791 0,0 0.07154,-0.0954 c 0.922078,-1.29568 2.138273,-1.94353 3.64859,-1.94354 1.645432,1e-5 2.968939,0.60812 3.970524,1.8243 1.001561,1.21621 1.502347,2.81792 1.502361,4.80517 -1.4e-5,2.10649 -0.5008,3.8036 -1.502361,5.09133 -1.001585,1.28774 -2.325092,1.93161 -3.970524,1.93161 -1.502368,0 -2.718564,-0.60413 -3.64859,-1.81238 l -0.143082,-0.19077 0,0 0,1.66929 0,0 -3.350503,0 0,0 z m 6.164448,15.04745 c 0.922075,0 1.641459,-0.34379 2.158153,-1.03138 0.516675,-0.68758 0.775017,-1.64345 0.775027,-2.8676 -1e-5,-1.24799 -0.258352,-2.22372 -0.775027,-2.92722 -0.516694,-0.70348 -1.232103,-1.05522 -2.146229,-1.05523 -0.914142,10e-6 -1.629551,0.36169 -2.14623,1.08504 -0.51669,0.72337 -0.775032,1.72891 -0.775027,3.01664 l 0,0 0,0 0,0 c -5e-6,1.18441 0.258337,2.11047 0.775027,2.77818 0.50873,0.66772 1.220165,1.00157 2.134306,1.00157 z" />
    <path
       inkscape:connector-curvature="0"
       id="path3306"
       style="font-size:40px;font-style:normal;font-weight:normal;line-height:125%;letter-spacing:0px;word-spacing:0px;fill:#ffffff;fill-opacity:0.19607843;stroke:none;font-family:Sans"
       d="m 84.750367,390.74354 -5.568274,18.48142 -2.813945,0 5.568274,-18.48142 z" />
    <path
       inkscape:connector-curvature="0"
       id="path3308"
       style="font-size:40px;font-style:normal;font-variant:normal;font-weight:bold;font-stretch:normal;line-height:125%;letter-spacing:-1.88646698000000000px;word-spacing:0px;fill:#ffffff;fill-opacity:0.91683578;stroke:none;font-family:Helvetica;-inkscape-font-specification:Helvetica Bold"
       d="m 90.531186,408.74802 0,-17.52754 0,0 1.824296,0 1.836217,0 0,0 0,7.26141 0,0 6.712931,-7.26141 0,0 2.337,0 2.33701,0 0,0 -6.999094,7.16602 0,0 7.464104,10.36152 0,0 -2.39662,0 -2.39662,0 0,0 -5.282108,-7.7145 0,0 -1.776603,1.82429 0,0 0,5.89021 0,0 -1.824295,0 -1.836218,0 z" />
    <path
       inkscape:connector-curvature="0"
       id="path3310"
       style="font-size:40px;font-style:normal;font-variant:normal;font-weight:bold;font-stretch:normal;line-height:125%;letter-spacing:-1.88646698000000000px;word-spacing:0px;fill:#ffffff;fill-opacity:0.91683578;stroke:none;font-family:Helvetica;-inkscape-font-specification:Helvetica Bold"
       d="m 112.36803,409.08188 c -2.027,0 -3.63865,-0.6081 -4.83497,-1.8243 -1.19633,-1.21619 -1.7945,-2.85766 -1.79449,-4.9244 -10e-6,-2.11443 0.59816,-3.79365 1.79449,-5.03768 1.19632,-1.24401 2.80797,-1.86602 4.83497,-1.86603 2.04289,1e-5 3.66051,0.62202 4.85287,1.86603 1.19233,1.24403 1.7885,2.92325 1.78852,5.03768 -2e-5,2.06674 -0.59619,3.70821 -1.78852,4.9244 -1.19236,1.2162 -2.80998,1.8243 -4.85287,1.8243 z m 0,-2.86164 c 1.01746,0 1.79249,-0.33386 2.32508,-1.00157 0.53257,-0.66771 0.79887,-1.64147 0.79888,-2.92126 -1e-5,-1.31158 -0.26631,-2.30719 -0.79888,-2.98684 -0.53259,-0.67963 -1.30762,-1.01945 -2.32508,-1.01946 -1.01748,10e-6 -1.79051,0.33983 -2.31912,1.01946 -0.52861,0.67965 -0.79291,1.67526 -0.79291,2.98684 0,1.27979 0.2643,2.25355 0.79291,2.92126 0.52861,0.66771 1.30164,1.00157 2.31912,1.00157 z" />
    <path
       inkscape:connector-curvature="0"
       id="path3312"
       style="font-size:40px;font-style:normal;font-variant:normal;font-weight:bold;font-stretch:normal;line-height:125%;letter-spacing:-1.88646698000000000px;word-spacing:0px;fill:#ffffff;fill-opacity:0.91683578;stroke:none;font-family:Helvetica;-inkscape-font-specification:Helvetica Bold"
       d="m 120.26631,408.74802 0,-12.97276 0,0 1.62159,0 1.63352,0 0,0 0,1.91968 0,0 0,0 c 0.13513,-0.23051 0.28219,-0.44911 0.44117,-0.6558 0.84259,-1.0731 2.06673,-1.60966 3.67244,-1.60967 1.36722,1e-5 2.43835,0.40542 3.21339,1.2162 0.77501,0.81081 1.16252,1.93559 1.16253,3.37435 l 0,8.728 0,0 -1.70506,0 -1.71698,0 0,0 0,-8.10798 c -1e-5,-0.80284 -0.1729,-1.39703 -0.51867,-1.78256 -0.34579,-0.38552 -0.87639,-0.57828 -1.59179,-0.57829 -0.89824,10e-6 -1.58782,0.27028 -2.06873,0.8108 -0.48092,0.54054 -0.72137,1.31954 -0.72137,2.337 l 0,0 0,7.32103 0,0 -1.70506,0 -1.71698,0 z" />
    <path
       inkscape:connector-curvature="0"
       id="path3314"
       style="font-size:40px;font-style:normal;font-variant:normal;font-weight:bold;font-stretch:normal;line-height:125%;letter-spacing:-1.88646698000000000px;word-spacing:0px;fill:#ffffff;fill-opacity:0.91683578;stroke:none;font-family:Helvetica;-inkscape-font-specification:Helvetica Bold"
       d="m 141.38775,399.66232 0,0 c -1e-5,-0.50078 -0.20669,-0.90221 -0.62002,-1.20428 -0.41336,-0.30205 -0.96184,-0.45308 -1.64545,-0.45309 -0.65977,10e-6 -1.17446,0.11328 -1.54409,0.33982 -0.36963,0.22655 -0.55444,0.54253 -0.55444,0.94792 0,0.28617 0.21064,0.53259 0.63194,0.73926 0.41334,0.19873 1.14863,0.41732 2.20585,0.65578 2.09852,0.46901 3.50152,0.98171 4.20899,1.53814 0.70746,0.55643 1.06118,1.43082 1.06119,2.62317 -1e-5,1.27184 -0.51471,2.29527 -1.54408,3.0703 -1.02941,0.77503 -2.3867,1.16254 -4.07188,1.16254 -1.9952,0 -3.53135,-0.38156 -4.60843,-1.14466 -1.07709,-0.7631 -1.65141,-1.87596 -1.72295,-3.33858 l 0,0 3.48167,0 0,0 c 0.0239,0.59618 0.28814,1.06319 0.7929,1.40102 0.50476,0.33783 1.19036,0.50675 2.05681,0.50674 0.6836,1e-5 1.21817,-0.11724 1.60371,-0.35174 0.38551,-0.23449 0.57828,-0.56239 0.57829,-0.98369 -10e-6,-0.29411 -0.18681,-0.5445 -0.56041,-0.75118 -0.37361,-0.19872 -1.0294,-0.40142 -1.96737,-0.6081 -2.19393,-0.49283 -3.66052,-1.01349 -4.39977,-1.56197 -0.73926,-0.54053 -1.10889,-1.37915 -1.10889,-2.51587 0,-1.28772 0.47892,-2.32705 1.43679,-3.11799 0.95784,-0.79091 2.21975,-1.18638 3.7857,-1.18639 1.76467,1e-5 3.18754,0.38753 4.26862,1.16254 1.08105,0.77504 1.62158,1.79848 1.62159,3.07031 l 0,0 z" />
    <path
       inkscape:connector-curvature="0"
       id="path3316"
       style="font-size:40px;font-style:normal;font-variant:normal;font-weight:bold;font-stretch:normal;line-height:125%;letter-spacing:-1.88646698000000000px;word-spacing:0px;fill:#ffffff;fill-opacity:0.91683578;stroke:none;font-family:Helvetica;-inkscape-font-specification:Helvetica Bold"
       d="m 152.44575,408.81956 c -0.57234,0.0477 -1.27582,0.0715 -2.11046,0.0715 -1.20825,0 -2.07668,-0.21661 -2.60528,-0.64983 -0.52861,-0.43322 -0.79292,-1.14266 -0.79292,-2.12834 l 0,-7.94105 0,0 -1.80045,0 0,-2.39662 1.80045,0 0,0 0,-3.49359 3.42205,0 0,3.49359 0,0 2.08661,0 0,2.39662 -2.08661,0 0,0 0,7.36872 c -1e-5,0.30206 0.0894,0.50079 0.26827,0.59618 0.17885,0.0954 0.55046,0.14308 1.11485,0.14308 l 0.70349,0 z" />
    <path
       inkscape:connector-curvature="0"
       id="path3318"
       style="font-size:40px;font-style:normal;font-variant:normal;font-weight:bold;font-stretch:normal;line-height:125%;letter-spacing:-1.88646698000000000px;word-spacing:0px;fill:#ffffff;fill-opacity:0.91683578;stroke:none;font-family:Helvetica;-inkscape-font-specification:Helvetica Bold"
       d="m 156.60005,409.08188 c -1.2003,0 -2.1661,-0.3438 -2.89741,-1.03139 -0.73131,-0.68758 -1.09696,-1.59178 -1.09696,-2.71259 0,-1.1844 0.32989,-2.13231 0.98965,-2.84375 0.65976,-0.71143 1.62159,-1.15857 2.88549,-1.3414 l 2.25354,-0.31001 c 0.58822,-0.0795 1.07708,-0.21461 1.46659,-0.4054 0.16692,-0.0795 0.29609,-0.22256 0.38752,-0.42925 0.0914,-0.20666 0.12518,-0.41731 0.10134,-0.63194 -0.0477,-0.36565 -0.2345,-0.65181 -0.5604,-0.85849 -0.38951,-0.24641 -0.94992,-0.36962 -1.68121,-0.36963 -0.65183,10e-6 -1.16056,0.15899 -1.52621,0.47694 -0.36566,0.31797 -0.56041,0.76709 -0.58425,1.34736 l 0,0 -3.27897,0 0,0 c 0.0716,-1.51825 0.58823,-2.65496 1.55006,-3.41013 0.96182,-0.75514 2.37277,-1.13272 4.23284,-1.13273 1.61364,1e-5 2.88746,0.33983 3.82148,1.01946 0.934,0.67965 1.401,1.6077 1.40101,2.78414 l 0,7.24948 c -10e-6,0.58029 0.0477,0.98767 0.14308,1.22216 0.0954,0.2345 0.28616,0.41931 0.57233,0.55445 l 0,0.0119 0,0.46502 -1.84814,0 -1.84814,0 0,0 c -0.15104,-0.52464 -0.25041,-1.03735 -0.29809,-1.53813 l -0.0119,-0.0239 c -1.07312,1.27184 -2.46419,1.90776 -4.17322,1.90776 z m 4.11361,-5.1271 0,-1.49044 0,0 c -0.39746,0.22257 -0.9221,0.40143 -1.5739,0.53656 l -1.26389,0.23846 c -0.59618,0.11129 -1.04927,0.31598 -1.35928,0.61406 -0.31002,0.2981 -0.46502,0.67368 -0.46502,1.12677 0,0.51669 0.1391,0.92209 0.41732,1.2162 0.27821,0.29412 0.66771,0.44117 1.16851,0.44117 1.09695,0 1.97134,-0.38552 2.62317,-1.15658 0.12717,-0.15102 0.23449,-0.3736 0.32193,-0.66771 0.0874,-0.29411 0.13115,-0.58028 0.13116,-0.85849 z" />
    <path
       inkscape:connector-curvature="0"
       id="path3320"
       style="font-size:40px;font-style:normal;font-variant:normal;font-weight:bold;font-stretch:normal;line-height:125%;letter-spacing:-1.88646698000000000px;word-spacing:0px;fill:#ffffff;fill-opacity:0.91683578;stroke:none;font-family:Helvetica;-inkscape-font-specification:Helvetica Bold"
       d="m 165.92915,408.74802 0,-12.97276 0,0 1.6216,0 1.63352,0 0,0 0,1.91968 0,0 0,0 c 0.13513,-0.23051 0.28218,-0.44911 0.44117,-0.6558 0.84259,-1.0731 2.06673,-1.60966 3.67243,-1.60967 1.36722,1e-5 2.43835,0.40542 3.21339,1.2162 0.77502,0.81081 1.16253,1.93559 1.16254,3.37435 l 0,8.728 0,0 -1.70506,0 -1.71699,0 0,0 0,-8.10798 c 0,-0.80284 -0.17289,-1.39703 -0.51866,-1.78256 -0.3458,-0.38552 -0.87639,-0.57828 -1.59179,-0.57829 -0.89825,10e-6 -1.58782,0.27028 -2.06873,0.8108 -0.48092,0.54054 -0.72138,1.31954 -0.72137,2.337 l 0,0 0,7.32103 0,0 -1.70506,0 -1.71699,0 z" />
    <path
       inkscape:connector-curvature="0"
       id="path3322"
       style="font-size:40px;font-style:normal;font-variant:normal;font-weight:bold;font-stretch:normal;line-height:125%;letter-spacing:-1.88646698000000000px;word-spacing:0px;fill:#ffffff;fill-opacity:0.91683578;stroke:none;font-family:Helvetica;-inkscape-font-specification:Helvetica Bold"
       d="m 178.60875,406.08908 6.56985,-7.51181 0.0835,-0.0954 0,0 -6.16444,0 0,0 0,-1.34736 0,-1.35927 0,0 10.44498,0 0,1.39505 0,1.40696 -6.48639,7.36873 0,0 6.78447,0 0,0 0,1.39505 0,1.40697 0,0 -11.23193,0 0,-1.32351 z" />
    <path
       inkscape:connector-curvature="0"
       id="path3324"
       style="font-size:40px;font-style:normal;font-variant:normal;font-weight:bold;font-stretch:normal;line-height:125%;letter-spacing:-1.88646698000000000px;word-spacing:0px;fill:#ffffff;fill-opacity:0.91683578;stroke:none;font-family:Helvetica;-inkscape-font-specification:Helvetica Bold"
       d="m 195.90274,409.08188 c -1.97136,0 -3.4916,-0.6081 -4.56074,-1.8243 -1.06914,-1.21619 -1.60371,-2.94907 -1.60371,-5.19864 0,-2.07468 0.54451,-3.69826 1.63352,-4.87075 1.08901,-1.17247 2.59932,-1.75871 4.53093,-1.75872 1.97929,1e-5 3.50351,0.59818 4.57266,1.79449 1.06913,1.19634 1.6037,2.89941 1.60371,5.10922 0.0159,0.25437 -0.004,0.51271 -0.0596,0.77503 l 0,0 -8.83532,0 0,0 c 0.0795,1.02542 0.30604,1.7925 0.67964,2.30123 0.47694,0.63592 1.27184,0.95388 2.3847,0.95388 0.51668,0 0.99561,-0.14705 1.43679,-0.44117 0.44115,-0.29411 0.70546,-0.64784 0.79291,-1.06119 l 0,0 3.48166,0 0,0 c -0.29413,1.31953 -0.97576,2.3529 -2.04488,3.10011 -1.06915,0.7472 -2.40657,1.12081 -4.01226,1.12081 z m 2.61125,-8.15567 0,0 c -0.0795,-0.779 -0.28617,-1.38709 -0.62002,-1.8243 -0.43721,-0.58027 -1.11684,-0.87041 -2.03892,-0.87041 -0.88235,0 -1.55404,0.33784 -2.01507,1.01349 -0.28617,0.42926 -0.49285,0.98966 -0.62002,1.68122 l 0,0 z" />
    <path
       inkscape:connector-curvature="0"
       id="path3326"
       style="font-size:40px;font-style:normal;font-variant:normal;font-weight:bold;font-stretch:normal;line-height:125%;letter-spacing:-1.88646698000000000px;word-spacing:0px;fill:#ffffff;fill-opacity:0.91683578;stroke:none;font-family:Helvetica;-inkscape-font-specification:Helvetica Bold"
       d="m 203.181,408.74802 0,-12.97276 0,0 1.6216,0 1.63352,0 0,0 0,2.32508 0,0 0,0 c 0.11923,-0.25436 0.25436,-0.50078 0.40539,-0.73926 0.80285,-1.28773 1.84019,-1.9316 3.11204,-1.93161 l 0.77502,0.0119 0,3.49358 c -0.30206,-0.0318 -0.64387,-0.0477 -1.02542,-0.0477 -1.04132,1e-5 -1.81833,0.25835 -2.33104,0.77503 -0.51272,0.51669 -0.76907,1.29967 -0.76906,2.34893 l 0,0 0,6.73677 0,0 -1.70507,0 -1.71698,0 z" />
    <path
       inkscape:connector-curvature="0"
       id="path3328"
       style="font-size:40px;font-style:normal;font-variant:normal;font-weight:bold;font-stretch:normal;line-height:125%;letter-spacing:-1.88646698000000000px;word-spacing:0px;fill:#ffffff;fill-opacity:0.91683578;stroke:none;font-family:Helvetica;-inkscape-font-specification:Helvetica Bold"
       d="m 226.94245,396.47874 0,0 c -0.0636,-0.83463 -0.42925,-1.49639 -1.09696,-1.98526 -0.66772,-0.48885 -1.53814,-0.73328 -2.61124,-0.73329 -0.93004,10e-6 -1.65737,0.2047 -2.182,0.61406 -0.52464,0.40938 -0.78696,0.97972 -0.78695,1.71101 -1e-5,0.52465 0.27423,0.93005 0.82272,1.2162 0.54052,0.28618 1.68915,0.62401 3.44589,1.0135 2.55162,0.57234 4.25667,1.2321 5.11518,1.9793 0.85848,0.73926 1.28772,1.92764 1.28774,3.56513 -2e-5,1.64544 -0.64786,2.95106 -1.94354,3.91686 -1.29569,0.96581 -3.04844,1.44871 -5.25826,1.44871 -2.21777,0 -3.95065,-0.51271 -5.19864,-1.53813 -1.248,-1.02542 -1.91571,-2.48406 -2.00315,-4.37592 l 0,0 3.52936,0 0,0 c 0.0397,0.93003 0.37757,1.64544 1.01349,2.14622 0.63592,0.50079 1.52223,0.75119 2.65894,0.75118 1.1685,1e-5 2.08064,-0.18878 2.73645,-0.56636 0.65578,-0.37758 0.98367,-0.90022 0.98368,-1.56794 -1e-5,-0.65976 -0.2345,-1.14465 -0.70348,-1.45467 -0.46106,-0.31001 -1.44673,-0.63194 -2.95703,-0.9658 -2.78215,-0.62002 -4.64222,-1.29171 -5.5802,-2.01507 -0.93003,-0.7154 -1.39504,-1.83224 -1.39504,-3.35051 0,-1.70106 0.61604,-3.05041 1.84814,-4.04802 1.23209,-0.99758 2.8974,-1.49638 4.99595,-1.4964 1.96339,2e-5 3.56113,0.5167 4.79324,1.55005 1.23208,1.03339 1.91569,2.42844 2.05084,4.18515 l 0,0 z" />
    <path
       inkscape:connector-curvature="0"
       id="path3330"
       style="font-size:40px;font-style:normal;font-variant:normal;font-weight:bold;font-stretch:normal;line-height:125%;letter-spacing:-1.88646698000000000px;word-spacing:0px;fill:#ffffff;fill-opacity:0.91683578;stroke:none;font-family:Helvetica;-inkscape-font-specification:Helvetica Bold"
       d="m 243.53295,403.94285 0,0 c -0.17488,1.61365 -0.77503,2.87357 -1.80044,3.77975 -1.02543,0.90619 -2.36086,1.35928 -4.00629,1.35928 -1.96341,0 -3.47968,-0.58426 -4.54882,-1.75276 -1.06914,-1.1685 -1.60371,-2.83381 -1.60371,-4.99594 0,-2.11443 0.55444,-3.79365 1.66333,-5.03768 1.10888,-1.24401 2.60528,-1.86602 4.4892,-1.86603 1.66928,1e-5 3.0365,0.46106 4.10168,1.38313 1.06515,0.92209 1.63351,2.13432 1.70505,3.63667 l 0,0 -3.48165,0 0,0 c -0.0318,-0.64386 -0.26034,-1.16452 -0.68561,-1.56198 -0.42527,-0.39744 -0.97177,-0.59617 -1.63947,-0.59618 -0.8585,10e-6 -1.51231,0.34381 -1.96142,1.03139 -0.44912,0.68759 -0.67368,1.69115 -0.67368,3.01068 0,1.28774 0.22456,2.26746 0.67368,2.93914 0.44911,0.67169 1.10292,1.00754 1.96142,1.00754 0.62001,0 1.14464,-0.21463 1.5739,-0.64387 0.42923,-0.42925 0.67963,-0.99362 0.75118,-1.69314 l 0,0 z" />
    <path
       inkscape:connector-curvature="0"
       id="path3332"
       style="font-size:40px;font-style:normal;font-variant:normal;font-weight:bold;font-stretch:normal;line-height:125%;letter-spacing:-1.88646698000000000px;word-spacing:0px;fill:#ffffff;fill-opacity:0.91683578;stroke:none;font-family:Helvetica;-inkscape-font-specification:Helvetica Bold"
       d="m 244.766,408.74802 0,-17.52754 0,0 1.70506,0 1.71698,0 0,0 0,6.20022 0,0 0,0 0.27424,-0.38156 c 0.84259,-1.0731 2.06673,-1.60966 3.67244,-1.60967 1.36722,1e-5 2.43834,0.40542 3.21338,1.2162 0.77501,0.81081 1.16253,1.93559 1.16254,3.37435 l 0,8.728 0,0 -1.70506,0 -1.71698,0 0,0 0,-8.10798 c -1e-5,-0.80284 -0.17291,-1.39703 -0.51868,-1.78256 -0.34579,-0.38552 -0.87638,-0.57828 -1.59178,-0.57829 -0.89824,10e-6 -1.58782,0.27028 -2.06873,0.8108 -0.48092,0.54054 -0.72138,1.31954 -0.72137,2.337 l 0,0 0,7.32103 0,0 -1.70506,0 -1.71698,0 z" />
    <path
       inkscape:connector-curvature="0"
       id="path3334"
       style="font-size:40px;font-style:normal;font-variant:normal;font-weight:bold;font-stretch:normal;line-height:125%;letter-spacing:-1.88646698000000000px;word-spacing:0px;fill:#ffffff;fill-opacity:0.91683578;stroke:none;font-family:Helvetica;-inkscape-font-specification:Helvetica Bold"
       d="m 261.98846,395.77526 0,8.1199 c 0,0.7949 0.1709,1.38312 0.51272,1.76468 0.34179,0.38155 0.86643,0.57232 1.57389,0.57232 0.89028,0 1.5739,-0.27026 2.05085,-0.8108 0.47693,-0.54052 0.7154,-1.31952 0.71541,-2.337 l 0,0 0,-7.3091 0,0 1.70506,0 1.71698,0 0,0 0,12.97276 0,0 -1.62159,0 -1.63352,0 0,0 0,-1.94353 0,0 0,0 c -0.11925,0.23847 -0.26233,0.46105 -0.42925,0.66772 -0.8426,1.07311 -2.06277,1.60967 -3.66051,1.60967 -1.36724,0 -2.43439,-0.40341 -3.20146,-1.21024 -0.76708,-0.80682 -1.15062,-1.92564 -1.15062,-3.35646 l 0,-8.73992 0,0 1.70506,0 1.71698,0 z m -1.51428,-4.84095 3.07626,0 0,2.80203 -3.07626,0 z m 4.75747,0 3.07627,0 0,2.80203 -3.07627,0 z" />
    <path
       inkscape:connector-curvature="0"
       id="path3336"
       style="font-size:40px;font-style:normal;font-variant:normal;font-weight:bold;font-stretch:normal;line-height:125%;letter-spacing:-1.88646698000000000px;word-spacing:0px;fill:#ffffff;fill-opacity:0.91683578;stroke:none;font-family:Helvetica;-inkscape-font-specification:Helvetica Bold"
       d="m 272.41452,408.74802 0,-17.52754 0,0 1.70506,0 1.71698,0 0,0 0,17.52754 0,0 -1.70506,0 -1.71698,0 z" />
    <path
       inkscape:connector-curvature="0"
       id="path3338"
       style="font-size:40px;font-style:normal;font-variant:normal;font-weight:bold;font-stretch:normal;line-height:125%;letter-spacing:-1.88646698000000000px;word-spacing:0px;fill:#ffffff;fill-opacity:0.91683578;stroke:none;font-family:Helvetica;-inkscape-font-specification:Helvetica Bold"
       d="m 283.07905,409.08188 c -1.97136,0 -3.49161,-0.6081 -4.56075,-1.8243 -1.06913,-1.21619 -1.6037,-2.94907 -1.6037,-5.19864 0,-2.07468 0.5445,-3.69826 1.63351,-4.87075 1.08901,-1.17247 2.59933,-1.75871 4.53094,-1.75872 1.97929,1e-5 3.5035,0.59818 4.57265,1.79449 1.06913,1.19634 1.6037,2.89941 1.60371,5.10922 0.0159,0.25437 -0.004,0.51271 -0.0596,0.77503 l 0,0 -8.83531,0 0,0 c 0.0795,1.02542 0.30603,1.7925 0.67963,2.30123 0.47694,0.63592 1.27184,0.95388 2.3847,0.95388 0.51668,0 0.99561,-0.14705 1.43679,-0.44117 0.44116,-0.29411 0.70546,-0.64784 0.79291,-1.06119 l 0,0 3.48166,0 0,0 c -0.29412,1.31953 -0.97575,2.3529 -2.04488,3.10011 -1.06915,0.7472 -2.40657,1.12081 -4.01225,1.12081 z m 2.61124,-8.15567 0,0 c -0.0795,-0.779 -0.28618,-1.38709 -0.62003,-1.8243 -0.43719,-0.58027 -1.11683,-0.87041 -2.03891,-0.87041 -0.88234,0 -1.55403,0.33784 -2.01507,1.01349 -0.28617,0.42926 -0.49284,0.98966 -0.62003,1.68122 l 0,0 z" />
    <path
       inkscape:connector-curvature="0"
       id="path3340"
       style="font-size:40px;font-style:normal;font-variant:normal;font-weight:bold;font-stretch:normal;line-height:125%;letter-spacing:-1.88646698000000000px;word-spacing:0px;fill:#ffffff;fill-opacity:0.91683578;stroke:none;font-family:Helvetica;-inkscape-font-specification:Helvetica Bold"
       d="m 290.35732,408.74802 0,-12.97276 0,0 1.62159,0 1.63352,0 0,0 0,2.32508 0,0 0,0 c 0.11923,-0.25436 0.25436,-0.50078 0.4054,-0.73926 0.80284,-1.28773 1.84018,-1.9316 3.11203,-1.93161 l 0.77503,0.0119 0,3.49358 c -0.30207,-0.0318 -0.64388,-0.0477 -1.02542,-0.0477 -1.04133,1e-5 -1.81834,0.25835 -2.33105,0.77503 -0.51271,0.51669 -0.76906,1.29967 -0.76906,2.34893 l 0,0 0,6.73677 0,0 -1.70506,0 -1.71698,0 z" />
    <path
       inkscape:connector-curvature="0"
       id="path3342"
       style="font-size:40px;font-style:normal;font-variant:normal;font-weight:bold;font-stretch:normal;line-height:125%;letter-spacing:-1.88646698000000000px;word-spacing:0px;fill:#ffffff;fill-opacity:0.91683578;stroke:none;font-family:Helvetica;-inkscape-font-specification:Helvetica Bold"
       d="m 298.64906,395.77526 0,0 1.6216,0 1.63352,0 0,0 0,1.91968 0,0 0.22655,-0.32193 c 0.92207,-1.29568 2.13827,-1.94353 3.64859,-1.94354 1.64542,1e-5 2.96695,0.60812 3.96456,1.8243 0.99758,1.21621 1.49638,2.81792 1.4964,4.80517 -2e-5,2.10649 -0.49882,3.8036 -1.4964,5.09133 -0.99761,1.28774 -2.31914,1.93161 -3.96456,1.93161 -1.50237,0 -2.7146,-0.60413 -3.63667,-1.81238 l -0.0715,-0.0954 0,0 0,6.65331 0,0 -1.70506,0 -1.71699,0 0,0 z m 6.15253,10.49267 c 0.91413,0 1.62953,-0.34379 2.14623,-1.03138 0.51667,-0.68758 0.77501,-1.64345 0.77502,-2.8676 -1e-5,-1.24799 -0.25636,-2.22372 -0.76906,-2.92722 -0.51272,-0.70348 -1.22614,-1.05522 -2.14027,-1.05523 -0.91414,10e-6 -1.62756,0.36169 -2.14027,1.08504 -0.51271,0.72337 -0.76907,1.72891 -0.76906,3.01664 l 0,0 0,0 0,0 c -10e-6,1.18441 0.25635,2.11047 0.76906,2.77818 0.51271,0.66772 1.22216,1.00157 2.12835,1.00157 z" />
    <path
       inkscape:connector-curvature="0"
       id="path3344"
       style="font-size:40px;font-style:normal;font-variant:normal;font-weight:bold;font-stretch:normal;line-height:125%;letter-spacing:-1.88646698000000000px;word-spacing:0px;fill:#ffffff;fill-opacity:0.91683578;stroke:none;font-family:Helvetica;-inkscape-font-specification:Helvetica Bold"
       d="m 315.60919,409.08188 c -1.2003,0 -2.1661,-0.3438 -2.89741,-1.03139 -0.73131,-0.68758 -1.09695,-1.59178 -1.09695,-2.71259 0,-1.1844 0.32988,-2.13231 0.98964,-2.84375 0.65977,-0.71143 1.62159,-1.15857 2.88549,-1.3414 l 2.25354,-0.31001 c 0.58822,-0.0795 1.07708,-0.21461 1.46659,-0.4054 0.16692,-0.0795 0.29609,-0.22256 0.38752,-0.42925 0.0914,-0.20666 0.12518,-0.41731 0.10134,-0.63194 -0.0477,-0.36565 -0.2345,-0.65181 -0.5604,-0.85849 -0.38951,-0.24641 -0.94991,-0.36962 -1.68121,-0.36963 -0.65183,10e-6 -1.16056,0.15899 -1.52621,0.47694 -0.36566,0.31797 -0.56041,0.76709 -0.58425,1.34736 l 0,0 -3.27897,0 0,0 c 0.0716,-1.51825 0.58823,-2.65496 1.55006,-3.41013 0.96183,-0.75514 2.37277,-1.13272 4.23284,-1.13273 1.61364,1e-5 2.88746,0.33983 3.82149,1.01946 0.93399,0.67965 1.40099,1.6077 1.40101,2.78414 l 0,7.24948 c -2e-5,0.58029 0.0477,0.98767 0.14307,1.22216 0.0954,0.2345 0.28616,0.41931 0.57233,0.55445 l 0,0.0119 0,0.46502 -1.84814,0 -1.84814,0 0,0 c -0.15104,-0.52464 -0.25041,-1.03735 -0.29809,-1.53813 l -0.0119,-0.0239 c -1.07312,1.27184 -2.4642,1.90776 -4.17323,1.90776 z m 4.11361,-5.1271 0,-1.49044 0,0 c -0.39746,0.22257 -0.92209,0.40143 -1.5739,0.53656 l -1.26389,0.23846 c -0.59618,0.11129 -1.04927,0.31598 -1.35928,0.61406 -0.31001,0.2981 -0.46502,0.67368 -0.46501,1.12677 -1e-5,0.51669 0.1391,0.92209 0.41732,1.2162 0.2782,0.29412 0.66771,0.44117 1.1685,0.44117 1.09696,0 1.97134,-0.38552 2.62317,-1.15658 0.12717,-0.15102 0.23449,-0.3736 0.32193,-0.66771 0.0874,-0.29411 0.13115,-0.58028 0.13116,-0.85849 z" />
    <path
       inkscape:connector-curvature="0"
       id="path3346"
       style="font-size:40px;font-style:normal;font-variant:normal;font-weight:bold;font-stretch:normal;line-height:125%;letter-spacing:-1.88646698000000000px;word-spacing:0px;fill:#ffffff;fill-opacity:0.91683578;stroke:none;font-family:Helvetica;-inkscape-font-specification:Helvetica Bold"
       d="m 324.91444,408.74802 0,-12.97276 0,0 1.6216,0 1.63352,0 0,0 0,2.32508 0,0 0,0 c 0.11922,-0.25436 0.25436,-0.50078 0.40539,-0.73926 0.80284,-1.28773 1.84019,-1.9316 3.11204,-1.93161 l 0.77503,0.0119 0,3.49358 c -0.30208,-0.0318 -0.64388,-0.0477 -1.02543,-0.0477 -1.04132,1e-5 -1.81834,0.25835 -2.33104,0.77503 -0.51271,0.51669 -0.76907,1.29967 -0.76906,2.34893 l 0,0 0,6.73677 0,0 -1.70506,0 -1.71699,0 z" />
    <path
       inkscape:connector-curvature="0"
       id="path3348"
       style="font-size:40px;font-style:normal;font-variant:normal;font-weight:bold;font-stretch:normal;line-height:125%;letter-spacing:-1.88646698000000000px;word-spacing:0px;fill:#ffffff;fill-opacity:0.91683578;stroke:none;font-family:Helvetica;-inkscape-font-specification:Helvetica Bold"
       d="m 333.37312,408.74802 0,-17.52754 0,0 1.70506,0 1.71698,0 0,0 0,17.52754 0,0 -1.70506,0 -1.71698,0 z" />
    <path
       inkscape:connector-curvature="0"
       id="path3350"
       style="font-size:40px;font-style:normal;font-variant:normal;font-weight:bold;font-stretch:normal;line-height:125%;letter-spacing:-1.88646698000000000px;word-spacing:0px;fill:#ffffff;fill-opacity:0.91683578;stroke:none;font-family:Helvetica;-inkscape-font-specification:Helvetica Bold"
       d="m 342.01067,409.08188 c -1.2003,0 -2.16611,-0.3438 -2.89741,-1.03139 -0.73131,-0.68758 -1.09697,-1.59178 -1.09697,-2.71259 0,-1.1844 0.32989,-2.13231 0.98966,-2.84375 0.65976,-0.71143 1.62159,-1.15857 2.88548,-1.3414 l 2.25355,-0.31001 c 0.58821,-0.0795 1.07708,-0.21461 1.46658,-0.4054 0.16692,-0.0795 0.2961,-0.22256 0.38751,-0.42925 0.0914,-0.20666 0.1252,-0.41731 0.10136,-0.63194 -0.0477,-0.36565 -0.23451,-0.65181 -0.56041,-0.85849 -0.3895,-0.24641 -0.94991,-0.36962 -1.68121,-0.36963 -0.65182,10e-6 -1.16056,0.15899 -1.5262,0.47694 -0.36567,0.31797 -0.56042,0.76709 -0.58426,1.34736 l 0,0 -3.27896,0 0,0 c 0.0715,-1.51825 0.58822,-2.65496 1.55005,-3.41013 0.96183,-0.75514 2.37277,-1.13272 4.23285,-1.13273 1.61363,1e-5 2.88746,0.33983 3.82147,1.01946 0.934,0.67965 1.401,1.6077 1.40101,2.78414 l 0,7.24948 c -10e-6,0.58029 0.0477,0.98767 0.14309,1.22216 0.0954,0.2345 0.28615,0.41931 0.57233,0.55445 l 0,0.0119 0,0.46502 -1.84814,0 -1.84815,0 0,0 c -0.15104,-0.52464 -0.2504,-1.03735 -0.29808,-1.53813 l -0.0119,-0.0239 c -1.07312,1.27184 -2.4642,1.90776 -4.17322,1.90776 z m 4.1136,-5.1271 0,-1.49044 0,0 c -0.39745,0.22257 -0.92209,0.40143 -1.5739,0.53656 l -1.26388,0.23846 c -0.59619,0.11129 -1.04928,0.31598 -1.35929,0.61406 -0.31001,0.2981 -0.46502,0.67368 -0.46502,1.12677 0,0.51669 0.13911,0.92209 0.41733,1.2162 0.27821,0.29412 0.66771,0.44117 1.1685,0.44117 1.09695,0 1.97134,-0.38552 2.62317,-1.15658 0.12717,-0.15102 0.23449,-0.3736 0.32194,-0.66771 0.0874,-0.29411 0.13115,-0.58028 0.13115,-0.85849 z" />
    <path
       inkscape:connector-curvature="0"
       id="path3352"
       style="font-size:40px;font-style:normal;font-variant:normal;font-weight:bold;font-stretch:normal;line-height:125%;letter-spacing:-1.88646698000000000px;word-spacing:0px;fill:#ffffff;fill-opacity:0.91683578;stroke:none;font-family:Helvetica;-inkscape-font-specification:Helvetica Bold"
       d="m 351.31591,408.74802 0,-12.97276 0,0 1.6216,0 1.63352,0 0,0 0,2.08661 0,0 0,0 c 0.15102,-0.36564 0.3418,-0.69156 0.57232,-0.97773 0.75515,-0.96977 1.85212,-1.45466 3.29089,-1.45467 1.14465,1e-5 2.08263,0.38554 2.81394,1.15658 0.28616,0.29412 0.51271,0.62004 0.67965,0.97773 l 0,0 0.41732,-0.67964 c 0.70745,-0.96977 1.73684,-1.45466 3.08818,-1.45467 1.40696,1e-5 2.5079,0.41734 3.30281,1.25197 0.79488,0.83466 1.19233,1.99124 1.19235,3.46974 l 0,8.59684 0,0 -1.70505,0 -1.71699,0 0,0 0,-7.61912 c -2e-5,-0.96977 -0.159,-1.68716 -0.47694,-2.15219 -0.31797,-0.465 -0.81081,-0.69751 -1.47851,-0.69752 -0.71543,10e-6 -1.26192,0.2206 -1.63949,0.66176 -0.37759,0.44117 -0.56637,1.07511 -0.56636,1.90179 l 0,0 0,7.90528 0,0 -1.70506,0 -1.71698,0 0,0 0,-8.17952 c -1e-5,-0.77899 -0.16694,-1.35529 -0.50079,-1.72891 -0.33387,-0.37359 -0.84658,-0.56039 -1.53813,-0.5604 -0.69157,10e-6 -1.22217,0.2206 -1.59179,0.66176 -0.36963,0.44117 -0.55445,1.07511 -0.55444,1.90179 l 0,0 0,7.90528 0,0 -1.70506,0 -1.71699,0 z" />
    <path
       inkscape:connector-curvature="0"
       id="path3354"
       style="font-size:40px;font-style:normal;font-variant:normal;font-weight:bold;font-stretch:normal;line-height:125%;letter-spacing:-1.88646698000000000px;word-spacing:0px;fill:#ffffff;fill-opacity:0.91683578;stroke:none;font-family:Helvetica;-inkscape-font-specification:Helvetica Bold"
       d="m 377.02791,409.08188 c -1.97136,0 -3.4916,-0.6081 -4.56074,-1.8243 -1.06914,-1.21619 -1.60371,-2.94907 -1.60371,-5.19864 0,-2.07468 0.54451,-3.69826 1.63352,-4.87075 1.08901,-1.17247 2.59932,-1.75871 4.53093,-1.75872 1.97929,1e-5 3.50351,0.59818 4.57266,1.79449 1.06913,1.19634 1.6037,2.89941 1.60371,5.10922 0.0159,0.25437 -0.004,0.51271 -0.0596,0.77503 l 0,0 -8.83532,0 0,0 c 0.0795,1.02542 0.30604,1.7925 0.67964,2.30123 0.47694,0.63592 1.27184,0.95388 2.3847,0.95388 0.51668,0 0.99561,-0.14705 1.43679,-0.44117 0.44115,-0.29411 0.70546,-0.64784 0.79291,-1.06119 l 0,0 3.48166,0 0,0 c -0.29413,1.31953 -0.97576,2.3529 -2.04488,3.10011 -1.06915,0.7472 -2.40657,1.12081 -4.01226,1.12081 z m 2.61125,-8.15567 0,0 c -0.0795,-0.779 -0.28618,-1.38709 -0.62003,-1.8243 -0.4372,-0.58027 -1.11684,-0.87041 -2.03891,-0.87041 -0.88235,0 -1.55404,0.33784 -2.01507,1.01349 -0.28617,0.42926 -0.49285,0.98966 -0.62003,1.68122 l 0,0 z" />
    <path
       inkscape:connector-curvature="0"
       id="path3356"
       style="font-size:40px;font-style:normal;font-variant:normal;font-weight:bold;font-stretch:normal;line-height:125%;letter-spacing:-1.88646698000000000px;word-spacing:0px;fill:#ffffff;fill-opacity:0.91683578;stroke:none;font-family:Helvetica;-inkscape-font-specification:Helvetica Bold"
       d="m 384.33001,408.74802 0,-12.97276 0,0 1.6216,0 1.63352,0 0,0 0,1.91968 0,0 0,0 c 0.13512,-0.23051 0.28218,-0.44911 0.44116,-0.6558 0.84259,-1.0731 2.06674,-1.60966 3.67244,-1.60967 1.36722,1e-5 2.43834,0.40542 3.21338,1.2162 0.77502,0.81081 1.16253,1.93559 1.16255,3.37435 l 0,8.728 0,0 -1.70506,0 -1.71699,0 0,0 0,-8.10798 c -10e-6,-0.80284 -0.1729,-1.39703 -0.51867,-1.78256 -0.34579,-0.38552 -0.87639,-0.57828 -1.59179,-0.57829 -0.89824,10e-6 -1.58781,0.27028 -2.06872,0.8108 -0.48092,0.54054 -0.72138,1.31954 -0.72137,2.337 l 0,0 0,7.32103 0,0 -1.70506,0 -1.71699,0 z" />
    <path
       inkscape:connector-curvature="0"
       id="path3358"
       style="font-size:40px;font-style:normal;font-variant:normal;font-weight:bold;font-stretch:normal;line-height:125%;letter-spacing:-1.88646698000000000px;word-spacing:0px;fill:#ffffff;fill-opacity:0.91683578;stroke:none;font-family:Helvetica;-inkscape-font-specification:Helvetica Bold"
       d="m 404.06832,408.81956 c -0.57234,0.0477 -1.27582,0.0715 -2.11046,0.0715 -1.20825,0 -2.07668,-0.21661 -2.60529,-0.64983 -0.52861,-0.43322 -0.79291,-1.14266 -0.79291,-2.12834 l 0,-7.94105 0,0 -1.80044,0 0,-2.39662 1.80044,0 0,0 0,-3.49359 3.42204,0 0,3.49359 0,0 2.08662,0 0,2.39662 -2.08662,0 0,0 0,7.36872 c 0,0.30206 0.0894,0.50079 0.26829,0.59618 0.17884,0.0954 0.55046,0.14308 1.11484,0.14308 l 0.70349,0 z" />
    <flowRoot
       xml:space="preserve"
       id="flowRoot3825"
       style="font-size:40px;font-style:normal;font-weight:normal;line-height:125%;letter-spacing:0px;word-spacing:0px;fill:#000000;fill-opacity:1;stroke:none;font-family:Sans"><flowRegion
         id="flowRegion3827"><rect
           id="rect3829"
           width="547.14288"
           height="282.85715"
           x="-78.571426"
           y="-37.63781" /></flowRegion><flowPara
         id="flowPara3831" /></flowRoot>  </g>
</svg>
